<?xml version="1.0" encoding="UTF-8"?>
<svg version="1.1" xmlns="http://www.w3.org/2000/svg" width="500" height="500">
<path d="M0 0 C1.03625519 0.46703842 1.03625519 0.46703842 2.09344482 0.94351196 C4.30145065 1.94444362 6.5012585 2.96158789 8.69921875 3.984375 C9.40698456 4.31294495 10.11475037 4.64151489 10.84396362 4.9800415 C15.26908254 7.04095516 19.68008816 9.13074405 24.08605957 11.23223877 C26.53385225 12.39974193 28.98305374 13.56424439 31.43261719 14.72802734 C33.99281259 15.94441936 36.55292382 17.16098493 39.11260986 18.37844849 C49.19460721 23.17371486 59.28922624 27.94222805 69.38818359 32.70166016 C70.86427336 33.39742794 72.34034761 34.09322868 73.81640625 34.7890625 C74.54370941 35.13188263 75.27101257 35.47470276 76.02035522 35.82791138 C80.58125416 37.97960928 85.13603285 40.14376691 89.68688965 42.31661987 C92.74897174 43.77775494 95.81348437 45.23374833 98.8782959 46.68914795 C100.3115009 47.3713325 101.74360355 48.05583922 103.17443848 48.74298096 C105.16675429 49.69950979 107.16299939 50.64737893 109.16015625 51.59375 C110.28212402 52.12967773 111.4040918 52.66560547 112.56005859 53.21777344 C124.34413298 58.38887366 136.04914333 61.34800796 148.63311577 63.75485611 C151.57441541 64.31742636 154.51284271 64.89334826 157.45094299 65.47238159 C162.62327275 66.48952701 167.79775316 67.49519377 172.9730835 68.49694824 C181.27894043 70.10482293 189.58281858 71.72248599 197.88383675 73.35515976 C200.7690646 73.91966074 203.6560633 74.47433337 206.5433197 75.02835083 C208.31729216 75.37541384 210.09118661 75.7228759 211.86499023 76.07080078 C212.65939514 76.22047302 213.45380005 76.37014526 214.27227783 76.52435303 C225.90194872 78.83502494 234.67755052 84.32417435 241.69921875 93.984375 C245.99858026 101.58854693 247.46810822 108.30446721 246.69921875 116.984375 C247.48296875 117.190625 248.26671875 117.396875 249.07421875 117.609375 C258.10000496 121.03294908 264.21401085 125.2953191 268.69921875 133.984375 C271.50776382 142.4100102 270.05345551 150.71285019 266.2980957 158.53857422 C265.79109131 159.53131348 265.28408691 160.52405273 264.76171875 161.546875 C263.65212135 163.83192327 262.54275978 166.11708606 261.43359375 168.40234375 C260.82545711 169.63359104 260.21671882 170.86454133 259.60742188 172.09521484 C257.5943326 176.17739916 255.64945619 180.29031152 253.71484375 184.41015625 C253.37381622 185.13617538 253.0327887 185.86219452 252.681427 186.61021423 C251.98012753 188.10369508 251.27896733 189.59724133 250.57794189 191.09085083 C248.78406335 194.9075536 246.98007178 198.71946089 245.17578125 202.53125 C244.81209442 203.29981827 244.44840759 204.06838654 244.07369995 204.86024475 C241.77148822 209.7238574 239.46477789 214.58531953 237.15589905 219.44577026 C235.60407342 222.71367949 234.05450729 225.98265747 232.50521851 229.25177002 C231.7694086 230.80273065 231.03248056 232.35316139 230.29434204 233.90301514 C229.26379528 236.06686442 228.23701844 238.23246774 227.2109375 240.3984375 C226.91371796 241.0199469 226.61649841 241.6414563 226.31027222 242.28179932 C222.03697489 251.32945212 218.9910087 260.0390138 217.078125 269.87890625 C216.83308731 271.09842484 216.58804962 272.31794342 216.33558655 273.57441711 C215.44059949 278.04125949 214.56963051 282.51268964 213.69921875 286.984375 C213.3345604 288.85366325 212.96987402 290.72294603 212.60516357 292.59222412 C211.58708585 297.81382993 210.57129887 303.03587931 209.55598068 308.25802231 C208.91129026 311.57284784 208.26589521 314.88753542 207.62026978 318.20217896 C207.40427439 319.31132723 207.188279 320.4204755 206.9657383 321.56323433 C206.52502495 323.82600633 206.08414541 326.08874597 205.64310265 328.35145378 C204.51883566 334.12332902 203.40014703 339.8961977 202.29174805 345.67114258 C201.20179209 351.34810845 200.09751488 357.02212292 198.98361397 362.69443703 C198.56661276 364.83149761 198.15475951 366.96956999 197.74839592 369.10867882 C197.18171946 372.08790114 196.59673349 375.06299693 196.00756836 378.0378418 C195.84795624 378.90075333 195.68834412 379.76366486 195.52389526 380.65272522 C193.07519574 392.73795315 187.50069797 401.57139686 177.26171875 408.40234375 C167.53976728 414.40446318 156.75195949 414.08965895 145.69921875 411.984375 C145.53421875 412.665 145.36921875 413.345625 145.19921875 414.046875 C142.61496549 419.10770431 138.27258424 422.97406857 132.97363281 425.05444336 C122.55061883 428.01457311 113.56782686 425.93576845 104.19921875 421.109375 C101.95578592 420.01681054 99.71229229 418.92437091 97.46875 417.83203125 C96.23482688 417.21964147 95.00127937 416.6064944 93.76806641 415.99267578 C86.69087986 412.48309724 79.54067452 409.12370769 72.40185547 405.74188232 C69.94305716 404.57364285 67.48871484 403.39648248 65.03515625 402.21728516 C52.22753327 396.0831611 39.82004172 390.84217278 25.82421875 388.046875 C24.61427246 387.79655518 23.40432617 387.54623535 22.15771484 387.28833008 C10.9534687 384.98834453 -0.27739155 382.81935836 -11.51171875 380.671875 C-17.95793377 379.43957579 -24.39976991 378.18586444 -30.83984375 376.921875 C-31.76498779 376.74040421 -32.69013184 376.55893341 -33.64331055 376.3719635 C-37.4998684 375.61520116 -41.3563354 374.85799431 -45.21228027 374.09811401 C-56.55613426 371.86266854 -67.90640208 369.67568224 -79.27734375 367.58203125 C-82.46432431 366.99017679 -85.65112973 366.39738778 -88.83789062 365.80435181 C-90.87052236 365.42915946 -92.90404004 365.05873038 -94.93847656 364.69345093 C-124.69435777 359.34924562 -124.69435777 359.34924562 -135.30078125 345.984375 C-138.79503261 340.57392129 -140.94664564 335.47686121 -141.30078125 328.984375 C-141.33945313 328.29859375 -141.378125 327.6128125 -141.41796875 326.90625 C-141.57804611 321.81934728 -140.88636251 317.19719417 -139.73828125 312.24609375 C-139.17417028 309.71378225 -139.17417028 309.71378225 -139.30078125 305.984375 C-140.29658203 305.52998047 -140.29658203 305.52998047 -141.3125 305.06640625 C-146.47648403 302.61634084 -150.54706271 300.42058782 -154.30078125 295.984375 C-154.85765625 295.345 -155.41453125 294.705625 -155.98828125 294.046875 C-160.13913201 287.52410952 -160.70150358 279.451668 -159.30078125 271.984375 C-157.23053388 265.4263414 -153.91116434 259.34365791 -150.80078125 253.234375 C-149.93000146 251.47280503 -149.06220538 249.70975729 -148.19726562 247.9453125 C-146.43434565 244.35436054 -144.65936998 240.76979158 -142.875 237.18945312 C-139.06154992 229.51213305 -135.42853483 221.75069518 -131.80078125 213.984375 C-130.50307759 211.20811167 -129.20484878 208.43209474 -127.90625 205.65625 C-127.5990654 204.99862671 -127.2918808 204.34100342 -126.97538757 203.66345215 C-125.03801728 199.5255346 -123.05220034 195.41427609 -121.0390625 191.3125 C-115.24669124 179.38249189 -111.25489374 168.06787631 -108.85888672 155.02294922 C-108.26447944 151.78673183 -107.63144006 148.55967973 -106.9921875 145.33203125 C-105.99025758 140.24392767 -105.00577107 135.15275009 -104.03515625 130.05859375 C-101.04781851 114.39080619 -97.99832862 98.7350618 -94.90000916 83.08885193 C-93.91740154 78.12489845 -92.9476894 73.15891093 -91.99771118 68.18861389 C-91.38580195 65.01312974 -90.74804142 61.8428576 -90.11328125 58.671875 C-89.81164062 57.0482605 -89.81164062 57.0482605 -89.50390625 55.3918457 C-87.00648936 43.24540733 -80.1995189 35.93854325 -70.5078125 28.6328125 C-62.78993648 23.89645592 -50.88939105 24.23187051 -42.30078125 25.984375 C-41.74390625 24.0971875 -41.74390625 24.0971875 -41.17578125 22.171875 C-37.5793256 11.51695499 -32.84019441 3.83108862 -23.11328125 -1.890625 C-14.67074197 -4.3818661 -7.9697717 -3.6926082 0 0 Z " fill="#5EECBE" transform="translate(199.30078125,31.015625)"/>
<path d="M0 0 C0.81074478 -0.0066568 1.62148956 -0.0133136 2.45680237 -0.02017212 C4.17747737 -0.03030229 5.89819169 -0.03498903 7.61889648 -0.03466797 C10.21341899 -0.03899498 12.80617445 -0.07517831 15.40039062 -0.11328125 C28.460899 -0.20253105 40.62685651 1.30106834 50.81640625 10.3359375 C59.92125949 20.3981243 61.51382682 33.73592074 61.31640625 46.7734375 C61.30504639 48.04662842 61.29368652 49.31981934 61.28198242 50.6315918 C60.9812585 65.14547804 58.36663585 77.26410588 47.62890625 87.5859375 C37.231649 96.42100251 25.37150665 96.59164632 12.38793945 96.68603516 C10.7168996 96.70262035 9.04593142 96.72994443 7.37524414 96.76806641 C4.95031429 96.82299932 2.52703167 96.84472623 0.1015625 96.859375 C-0.63924057 96.88204437 -1.38004364 96.90471375 -2.14329529 96.92807007 C-6.05610947 96.91223313 -8.60895163 96.39260402 -11.63891602 93.99072266 C-15.60232512 89.85581806 -15.34055176 86.17242889 -15.3605957 80.74682617 C-15.3671669 79.9757402 -15.3737381 79.20465424 -15.38050842 78.41020203 C-15.40022089 75.85810243 -15.41189914 73.3060616 -15.421875 70.75390625 C-15.42595053 69.88154139 -15.43002605 69.00917652 -15.43422508 68.11037636 C-15.45507661 63.49342715 -15.46938256 58.87650758 -15.47875977 54.25952148 C-15.48982515 49.49460487 -15.524229 44.73015513 -15.56393147 39.96540356 C-15.59009338 36.29790893 -15.59845119 32.63052567 -15.60204124 28.96294594 C-15.60690794 27.20669716 -15.61852433 25.45045338 -15.63707924 23.69429588 C-15.66146332 21.23356623 -15.66050747 18.77404625 -15.65356445 16.31323242 C-15.66637451 15.59145813 -15.67918457 14.86968384 -15.69238281 14.1260376 C-15.64055478 9.07263534 -14.37250775 6.21681438 -11.18359375 2.3359375 C-7.41145545 -0.17882137 -4.37327886 0.01250956 0 0 Z " fill="#FDFEFE" transform="translate(124.18359375,194.6640625)"/>
<path d="M0 0 C1.20527344 -0.01933594 2.41054688 -0.03867188 3.65234375 -0.05859375 C7.66727108 0.5254793 9.24312702 1.56769101 12.0625 4.4375 C14.37469422 7.98006854 14.32902107 11.10411737 14.37109375 15.2734375 C14.39394853 16.65178112 14.41724074 18.03011753 14.44091797 19.40844727 C14.4500824 20.12783478 14.45924683 20.84722229 14.46868896 21.58840942 C14.62157875 32.4485014 14.95124268 43.22724271 16.4375 54 C16.55150146 54.85319824 16.66550293 55.70639648 16.78295898 56.58544922 C18.28899143 66.56572394 18.28899143 66.56572394 24.0625 74.4375 C28.70195246 74.98777443 28.70195246 74.98777443 32.875 73.25 C38.55480703 64.58082086 38.21932552 53.16726796 38.51953125 43.1953125 C38.55061981 42.17709412 38.58170837 41.15887573 38.61373901 40.10980225 C38.73778661 35.84394077 38.85447887 31.57833411 38.94067383 27.31152344 C39.00801599 24.16761993 39.10529003 21.02576546 39.20703125 17.8828125 C39.21869827 16.92335724 39.2303653 15.96390198 39.24238586 14.97537231 C39.4721712 8.73545488 40.46525081 5.7453752 45.0625 1.4375 C48.55032018 -0.30641009 52.25676125 -0.12973316 56.0625 0.4375 C60.74583128 3.69546959 62.65170835 8.03730307 64.0625 13.4375 C64.45472287 17.09377905 64.44228192 20.7012228 64.375 24.375 C64.3644458 25.38481934 64.3538916 26.39463867 64.34301758 27.43505859 C64.11066993 40.71777424 62.58145085 53.59497376 59.0625 66.4375 C58.78664063 67.45457031 58.51078125 68.47164063 58.2265625 69.51953125 C55.12312587 79.85105746 50.68830588 88.58931123 41.2734375 94.31640625 C32.63821562 98.69504349 22.33276612 99.05411429 12.94140625 96.6328125 C4.47065796 92.80049268 -1.0920205 85.95625652 -4.75 77.5625 C-5.51150361 75.53267265 -6.24234735 73.49099692 -6.9375 71.4375 C-7.22238281 70.59832031 -7.50726563 69.75914062 -7.80078125 68.89453125 C-12.75114804 52.52024111 -13.93863921 34.93789836 -14.1875 17.9375 C-14.20901123 17.07584229 -14.23052246 16.21418457 -14.25268555 15.32641602 C-14.2836843 9.37874951 -13.46406908 6.0090859 -9.18359375 1.65234375 C-6.05375908 -0.04048857 -3.54093059 0.00377901 0 0 Z " fill="#FCFEFE" transform="translate(291.9375,194.5625)"/>
<path d="M0 0 C12.25512986 5.45777382 24.43923908 11.04195908 36.54364014 16.82626343 C39.98444753 18.47040423 43.42764681 20.10950957 46.87069702 21.74894714 C48.64735185 22.59492923 50.42390243 23.44113026 52.2003479 24.28755188 C60.91637025 28.43965769 69.64388329 32.56724753 78.375 36.6875 C79.11151794 37.03513397 79.84803589 37.38276794 80.60687256 37.74093628 C94.92614354 44.49899059 109.25257708 51.24182549 123.58106995 57.9803009 C128.79843168 60.43418649 134.01460857 62.89058091 139.23046875 65.34765625 C141.52071385 66.42629707 143.81098094 67.50489118 146.10125732 68.58346558 C147.54620275 69.26406044 148.99107101 69.94481918 150.43585205 70.62576294 C159.2724882 74.79044772 168.12322301 78.92135308 177 83 C173.86333585 84.04555472 172.91036606 83.98142658 169.78710938 83.35424805 C168.92885559 83.18584412 168.07060181 83.01744019 167.18634033 82.84393311 C166.24828552 82.65180237 165.31023071 82.45967163 164.34375 82.26171875 C162.86101593 81.96760101 162.86101593 81.96760101 161.34832764 81.6675415 C158.06412069 81.01449034 154.78213929 80.3508578 151.5 79.6875 C149.19254575 79.22712856 146.8849258 78.76758688 144.57714844 78.30883789 C139.77277188 77.35307044 134.96913457 76.39370763 130.16601562 75.43164062 C120.24898575 73.44743268 110.32487525 71.49959455 100.39993286 69.55541992 C97.24659243 68.93683154 94.09383132 68.31535872 90.94116211 67.69335938 C80.22799044 65.58371927 69.50754411 63.52639302 58.76953125 61.546875 C55.56162535 60.95066856 52.35386335 60.35369275 49.14611816 59.75662231 C46.15607485 59.20477047 43.16366935 58.66744092 40.17089844 58.13061523 C25.18982083 55.38302605 12.88646554 52.45767086 3 40 C-0.49425136 34.58954629 -2.64586439 29.49248621 -3 23 C-3.07541016 22.0409375 -3.07541016 22.0409375 -3.15234375 21.0625 C-3.48477444 13.8288081 -1.64150903 6.99764967 0 0 Z " fill="#010201" transform="translate(61,337)"/>
<path d="M0 0 C0.94147888 -0.01606293 1.88295776 -0.03212585 2.85296631 -0.04867554 C7.1656423 -0.09313743 11.47816395 -0.13419979 15.79101562 -0.15722656 C18.06455732 -0.17377675 20.33804719 -0.20105415 22.61132812 -0.23925781 C25.88992296 -0.29407584 29.16729739 -0.31590984 32.44628906 -0.33056641 C33.45898865 -0.35323578 34.47168823 -0.37590515 35.51507568 -0.39926147 C40.11318003 -0.38552608 43.42594717 -0.35853749 47.1027832 2.59667969 C50.26863208 6.0806533 50.26863208 6.0806533 50.14941406 9.19287109 C49.89380029 12.57336326 49.38105049 13.29558969 47.14941406 16.13037109 C43.17421205 19.18110752 40.35520544 19.31430178 35.48144531 19.29052734 C34.31806641 19.28730469 33.1546875 19.28408203 31.95605469 19.28076172 C30.74111328 19.27238281 29.52617187 19.26400391 28.27441406 19.25537109 C27.04787109 19.25085938 25.82132813 19.24634766 24.55761719 19.24169922 C21.52569541 19.22990186 18.49379866 19.21196624 15.46191406 19.19287109 C15.46191406 25.79287109 15.46191406 32.39287109 15.46191406 39.19287109 C21.7740836 39.07481447 21.7740836 39.07481447 28.08544922 38.92260742 C34.27882773 38.86439192 38.6417043 39.64558486 43.39941406 43.94287109 C45.01211169 47.35799548 44.42303608 49.60468224 43.46191406 53.19287109 C41.57080295 55.5110073 40.12363376 56.86201125 37.46191406 58.19287109 C35.79445346 58.27713203 34.12366219 58.30012252 32.45410156 58.29052734 C31.46796875 58.28730469 30.48183594 58.28408203 29.46582031 58.28076172 C28.43328125 58.27238281 27.40074219 58.26400391 26.33691406 58.25537109 C24.77650391 58.24860352 24.77650391 58.24860352 23.18457031 58.24169922 C20.61032719 58.22989076 18.03611353 58.21195494 15.46191406 58.19287109 C15.46191406 64.46287109 15.46191406 70.73287109 15.46191406 77.19287109 C18.28109375 77.14066406 18.28109375 77.14066406 21.15722656 77.08740234 C23.63378011 77.05925969 26.11034334 77.03196004 28.58691406 77.00537109 C29.82441406 76.98023438 31.06191406 76.95509766 32.33691406 76.92919922 C33.53574219 76.91953125 34.73457031 76.90986328 35.96972656 76.89990234 C37.06945801 76.88419189 38.16918945 76.86848145 39.30224609 76.85229492 C43.88082244 77.34581323 47.20967661 78.94063364 50.46191406 82.19287109 C50.966134 85.22991677 50.91658634 88.15089703 50.46191406 91.19287109 C48.58570793 93.69447927 47.22300103 94.81232761 44.46191406 96.19287109 C42.91611942 96.30292719 41.36576595 96.35194663 39.81616211 96.36987305 C38.85143478 96.38270828 37.88670746 96.39554352 36.89274597 96.4087677 C35.84693863 96.41615463 34.80113129 96.42354156 33.72363281 96.43115234 C32.65071487 96.43922409 31.57779694 96.44729584 30.47236633 96.45561218 C28.19847229 96.4694597 25.9245574 96.48017885 23.65063477 96.48803711 C20.17391545 96.50524979 16.69814687 96.54913097 13.22167969 96.59326172 C11.0140044 96.60338844 8.80632102 96.61190461 6.59863281 96.61865234 C5.55889816 96.63616043 4.51916351 96.65366852 3.44792175 96.67170715 C-3.75910441 96.65006376 -3.75910441 96.65006376 -7.67163086 94.35375977 C-11.09538325 90.38990987 -10.69744891 86.28144058 -10.71508789 81.3125 C-10.72165909 80.51054703 -10.72823029 79.70859406 -10.73500061 78.88233948 C-10.75471435 76.22803656 -10.76639071 73.57379012 -10.77636719 70.91943359 C-10.78044271 70.01272289 -10.78451824 69.10601219 -10.78871727 68.17182541 C-10.80956786 63.37448098 -10.82387505 58.57716509 -10.83325195 53.77978516 C-10.84432598 48.82420801 -10.87874012 43.86907871 -10.91842365 38.91366005 C-10.94455844 35.1029476 -10.95294089 31.2923425 -10.95653343 27.48154831 C-10.961406 25.6546971 -10.97303904 23.82785089 -10.99157143 22.00108719 C-11.01590088 19.44437274 -11.01500971 16.88882584 -11.00805664 14.33203125 C-11.0208667 13.57860947 -11.03367676 12.82518768 -11.046875 12.04893494 C-11.0105247 8.37971651 -10.64547514 6.35900964 -8.63371277 3.24667358 C-5.65830506 0.33064881 -4.04937659 0.06272962 0 0 Z " fill="#FCFEFD" transform="translate(213.5380859375,194.80712890625)"/>
<path d="M0 0 C1.05993478 3.26528874 0.90992078 5.46123483 0.16870117 8.79385376 C-0.03591232 9.73931753 -0.24052582 10.6847813 -0.45133972 11.65889549 C-0.68009293 12.67718752 -0.90884613 13.69547955 -1.14453125 14.74462891 C-1.61812026 16.93078395 -2.090249 19.11725576 -2.56103516 21.30401611 C-2.80307678 22.42076973 -3.04511841 23.53752335 -3.29449463 24.68811798 C-4.3676406 29.72582992 -5.35110861 34.77956226 -6.32421875 39.83740234 C-6.61002052 41.3170066 -6.61002052 41.3170066 -6.90159607 42.82650185 C-7.2947771 44.86313039 -7.68748658 46.89985002 -8.07974243 48.93665695 C-9.14702036 54.46708191 -10.22673054 59.99508595 -11.3046875 65.5234375 C-12.66202884 72.48479698 -14.01540949 79.44683595 -15.35253906 86.41210938 C-16.44781633 92.11573252 -17.55742543 97.81640227 -18.67666626 103.51536942 C-19.09645162 105.66638657 -19.51108833 107.81841571 -19.92025757 109.97147751 C-20.49182528 112.97519395 -21.08171604 115.97478477 -21.67578125 118.97412109 C-21.83696442 119.84488785 -21.99814758 120.7156546 -22.16421509 121.61280823 C-24.61769831 133.72301012 -30.17366531 142.5704395 -40.4375 149.41796875 C-48.36444737 154.31189205 -55.70210391 154.83055452 -65 154 C-68.4296875 152.98046875 -68.4296875 152.98046875 -71 152 C-68.08558135 144.33429935 -64.66583813 136.98801385 -61.0625 129.625 C-59.88901344 127.20779287 -58.71664282 124.79009759 -57.546875 122.37109375 C-57.24936844 121.75605484 -56.95186188 121.14101593 -56.64533997 120.50733948 C-53.63317016 114.26545569 -50.71688404 107.98017934 -47.8125 101.6875 C-42.66828334 90.55249004 -37.44591111 79.4564969 -32.1875 68.375 C-30.65355611 65.14196964 -29.11966727 61.90891319 -27.5859375 58.67578125 C-27.20576477 57.87438721 -26.82559204 57.07299316 -26.43389893 56.24731445 C-22.3775554 47.69318216 -18.34259304 39.12902461 -14.3125 30.5625 C-13.99042572 29.8781488 -13.66835144 29.19379761 -13.33651733 28.4887085 C-8.87192174 19.00135295 -4.4290824 9.50398426 0 0 Z " fill="#010202" transform="translate(417,290)"/>
<path d="M0 0 C-1.42462926 4.58320826 -3.24715525 8.87466003 -5.31640625 13.1953125 C-5.64447266 13.88753906 -5.97253906 14.57976562 -6.31054688 15.29296875 C-7.39139607 17.57181595 -8.47698388 19.84837268 -9.5625 22.125 C-10.32775833 23.73664279 -11.09264449 25.34846234 -11.85717773 26.96044922 C-13.44629751 30.31026436 -15.03701615 33.65931302 -16.62890625 37.0078125 C-19.93488253 43.96464277 -23.22293905 50.92992061 -26.51028442 57.89556885 C-27.56896432 60.13869658 -28.62806033 62.38162743 -29.68725586 64.62451172 C-42.17094167 91.0613753 -54.60018766 117.52370504 -67 144 C-68.2705755 140.1882735 -67.48747664 137.3525982 -66.69921875 133.53125 C-66.54748703 132.7643132 -66.39575531 131.9973764 -66.23942566 131.2071991 C-65.72921134 128.63666283 -65.2083013 126.06841049 -64.6875 123.5 C-64.32426013 121.68089951 -63.96180973 119.86164122 -63.60009766 118.04223633 C-63.02144496 115.13361414 -62.44188825 112.2251888 -61.859375 109.31733704 C-60.36461838 101.85561446 -58.90008011 94.38834224 -57.44921875 86.91796875 C-55.55285072 77.15434367 -53.63939809 67.39427961 -51.70588684 57.63793945 C-50.67074465 52.41196859 -49.647751 47.18409961 -48.64639282 41.95155334 C-48.03019577 38.75614478 -47.38876432 35.56597193 -46.75 32.375 C-46.5526123 31.31112061 -46.35522461 30.24724121 -46.15185547 29.15112305 C-43.88217808 18.12056423 -37.90149223 10.70265684 -29 4 C-20.50226096 -1.53713316 -9.78011665 -2.44502916 0 0 Z " fill="#010202" transform="translate(156,57)"/>
<path d="M0 0 C1.12148438 -0.02835938 2.24296875 -0.05671875 3.3984375 -0.0859375 C7.30682301 0.47240329 8.86572183 1.59622163 11.625 4.375 C14.08282793 8.02218153 13.91437003 11.74049067 13.8996582 15.98583984 C13.9073246 17.12805748 13.9073246 17.12805748 13.91514587 18.29335022 C13.9290321 20.80762621 13.92808567 23.32162774 13.92578125 25.8359375 C13.92966909 27.58704734 13.93400394 29.33815624 13.93876648 31.08926392 C13.94622687 34.75941016 13.945939 38.42946021 13.94067383 42.09960938 C13.93488339 46.79605883 13.95180067 51.49211336 13.9750185 56.18849754 C13.98977291 59.80539237 13.99062515 63.4221925 13.98750877 67.03911209 C13.98802126 68.77021694 13.99324532 70.50132719 14.00332069 72.2324028 C14.01569926 74.65698402 14.00888503 77.0808015 13.99731445 79.50537109 C14.00878006 80.57164986 14.00878006 80.57164986 14.02047729 81.6594696 C13.97182613 86.28705781 13.06763827 89.44798064 10.625 93.375 C5.56500819 97.16999386 -0.29265645 97.21873973 -6.375 96.375 C-10.04295557 94.27902539 -11.8791391 92.27828351 -13.375 88.375 C-13.57517021 85.77187362 -13.66878488 83.27534837 -13.66552734 80.67236328 C-13.67224457 79.90113129 -13.67896179 79.12989929 -13.68588257 78.33529663 C-13.70486297 75.78856951 -13.70878677 73.24210593 -13.7109375 70.6953125 C-13.71736544 68.92178235 -13.7240938 67.14825326 -13.73110962 65.37472534 C-13.74308251 61.65750673 -13.74679044 57.94038106 -13.74560547 54.22314453 C-13.74540229 49.46606797 -13.7727033 44.70958888 -13.80714989 39.95265388 C-13.82941638 36.28943153 -13.83344309 32.62635301 -13.83238602 28.96306992 C-13.8347424 27.20962337 -13.84356804 25.45617289 -13.85905075 23.70279312 C-13.87870599 21.246915 -13.87287528 18.79232585 -13.86083984 16.33642578 C-13.87207886 15.61622253 -13.88331787 14.89601929 -13.89489746 14.1539917 C-13.83225012 9.10873776 -12.55713233 6.25086734 -9.375 2.375 C-5.85460293 0.02806862 -4.17442991 0.04776236 0 0 Z " fill="#FAFEFC" transform="translate(386.375,194.625)"/>
<path d="M0 0 C10.58456151 1.50278822 21.04155456 3.50376003 31.5234375 5.58984375 C33.28170315 5.93854559 35.0399735 6.28722374 36.79824829 6.63587952 C40.45788892 7.36244854 44.11701846 8.09153451 47.77587891 8.82202148 C52.45133405 9.75492658 57.12867427 10.67799738 61.80652428 11.59880733 C65.42790283 12.31339602 69.04787548 13.03491509 72.66749954 13.75833321 C74.39167768 14.10172842 76.11636199 14.44259273 77.84156418 14.78080559 C80.25185558 15.25404073 82.65999746 15.73704578 85.06787109 16.22241211 C85.77033966 16.35809601 86.47280823 16.49377991 87.19656372 16.63357544 C98.59215422 18.96532447 107.16368977 24.58077174 114 34 C118.09566327 41.33271761 119.67026198 47.66394242 119 56 C111.50997464 53.72554204 104.69941264 50.58367179 97.6875 47.125 C95.25860572 45.94103589 92.82911556 44.75841126 90.3984375 43.578125 C89.77989395 43.27732025 89.1613504 42.9765155 88.52406311 42.66659546 C82.32307821 39.65756871 76.0720226 36.76004745 69.8125 33.875 C56.19838123 27.59035198 42.65543279 21.15919382 29.1184082 14.71044922 C19.43202905 10.09719172 9.7308938 5.51866362 0 1 C0 0.67 0 0.34 0 0 Z " fill="#020302" transform="translate(327,91)"/>
<path d="M0 0 C13.16129032 0 13.16129032 0 18 3 C24.98724128 10.36935604 24.20887856 18.66438143 24.25 28.3125 C24.270625 29.51068359 24.29125 30.70886719 24.3125 31.94335938 C24.34819517 40.04170058 23.93290008 46.22912847 18.8125 52.8125 C12.51528127 57.71033679 8.13231262 58 0 58 C0 38.86 0 19.72 0 0 Z " fill="#60EDBF" transform="translate(135,214)"/>
</svg>
