<svg xmlns="http://www.w3.org/2000/svg" display="none">
  <symbol id="home" viewBox="0 0 24 24"
  >
    <path
      d="M11.3861 1.21065C11.7472 0.929784 12.2528 0.929784 12.6139 1.21065L21.6139 8.21065C21.8575 8.4001 22 8.69141 22 9V20.5C22 21.3284 21.3284 22 20.5 22H15V14C15 13.4477 14.5523 13 14 13H10C9.44772 13 9 13.4477 9 14V22H3.5C2.67157 22 2 21.3284 2 20.5V9C2 8.69141 2.14247 8.4001 2.38606 8.21065L11.3861 1.21065Z"
    />
  </symbol>
  <symbol id="apps" viewBox="0 0 24 24">
    <path
      d="M7 4C7 5.38071 5.88071 6.5 4.5 6.5C3.11929 6.5 2 5.38071 2 4C2 2.61929 3.11929 1.5 4.5 1.5C5.88071 1.5 7 2.61929 7 4Z"
    />
    <path
      d="M14.5 4C14.5 5.38071 13.3807 6.5 12 6.5C10.6193 6.5 9.5 5.38071 9.5 4C9.5 2.61929 10.6193 1.5 12 1.5C13.3807 1.5 14.5 2.61929 14.5 4Z"
    />
    <path
      d="M19.5 6.5C20.8807 6.5 22 5.38071 22 4C22 2.61929 20.8807 1.5 19.5 1.5C18.1193 1.5 17 2.61929 17 4C17 5.38071 18.1193 6.5 19.5 6.5Z"
    />
    <path
      d="M7 12C7 13.3807 5.88071 14.5 4.5 14.5C3.11929 14.5 2 13.3807 2 12C2 10.6193 3.11929 9.5 4.5 9.5C5.88071 9.5 7 10.6193 7 12Z"
    />
    <path
      d="M12 14.5C13.3807 14.5 14.5 13.3807 14.5 12C14.5 10.6193 13.3807 9.5 12 9.5C10.6193 9.5 9.5 10.6193 9.5 12C9.5 13.3807 10.6193 14.5 12 14.5Z"
    />
    <path
      d="M22 12C22 13.3807 20.8807 14.5 19.5 14.5C18.1193 14.5 17 13.3807 17 12C17 10.6193 18.1193 9.5 19.5 9.5C20.8807 9.5 22 10.6193 22 12Z"
    />
    <path
      d="M4.5 22.5C5.88071 22.5 7 21.3807 7 20C7 18.6193 5.88071 17.5 4.5 17.5C3.11929 17.5 2 18.6193 2 20C2 21.3807 3.11929 22.5 4.5 22.5Z"
    />
    <path
      d="M14.5 20C14.5 21.3807 13.3807 22.5 12 22.5C10.6193 22.5 9.5 21.3807 9.5 20C9.5 18.6193 10.6193 17.5 12 17.5C13.3807 17.5 14.5 18.6193 14.5 20Z"
    />
    <path
      d="M19.5 22.5C20.8807 22.5 22 21.3807 22 20C22 18.6193 20.8807 17.5 19.5 17.5C18.1193 17.5 17 18.6193 17 20C17 21.3807 18.1193 22.5 19.5 22.5Z"
    />
  </symbol>
  <symbol id="collapse" viewBox="0 0 24 24">
    <path
      d="M19 4C19 3.44772 19.4477 3 20 3H21C21.5523 3 22 3.44772 22 4V20C22 20.5523 21.5523 21 21 21H20C19.4477 21 19 20.5523 19 20V4Z"
    />
    <path
      d="M8 16C8 16.4044 7.75636 16.7691 7.38268 16.9239C7.00901 17.0786 6.57889 16.9931 6.29289 16.7071L2.29289 12.7071C1.90237 12.3166 1.90237 11.6834 2.29289 11.2929L6.29289 7.29286C6.57889 7.00687 7.00901 6.92131 7.38268 7.07609C7.75636 7.23087 8 7.59551 8 7.99997V10.5H16C16.5523 10.5 17 10.9477 17 11.5V12.5C17 13.0523 16.5523 13.5 16 13.5H8V16Z"
    />
  </symbol>
  <symbol id="expand" viewBox="0 0 24 24">
    <path
      d="M5 4C5 3.44772 4.55228 3 4 3H3C2.44772 3 2 3.44772 2 4V20C2 20.5523 2.44772 21 3 21H4C4.55228 21 5 20.5523 5 20V4Z"
    />
    <path
      d="M16 16C16 16.4044 16.2436 16.7691 16.6173 16.9239C16.991 17.0786 17.4211 16.9931 17.7071 16.7071L21.7071 12.7071C22.0976 12.3166 22.0976 11.6834 21.7071 11.2929L17.7071 7.29286C17.4211 7.00687 16.991 6.92131 16.6173 7.07609C16.2436 7.23087 16 7.59551 16 7.99997V10.5H8C7.44771 10.5 7 10.9477 7 11.5V12.5C7 13.0523 7.44772 13.5 8 13.5H16V16Z"
    />
  </symbol>
  <symbol id="user" viewBox="0 0 24 24">
    <path
      d="M12 1C8.96243 1 6.5 3.46243 6.5 6.5C6.5 9.53757 8.96243 12 12 12C15.0376 12 17.5 9.53757 17.5 6.5C17.5 3.46243 15.0376 1 12 1Z"
    />
    <path
      d="M7 14C4.23858 14 2 16.2386 2 19V22C2 22.5523 2.44772 23 3 23H21C21.5523 23 22 22.5523 22 22V19C22 16.2386 19.7614 14 17 14H7Z"
    />
  </symbol>
  <symbol id="otps" viewBox="0 0 24 24">
    <path fill-rule="evenodd" clip-rule="evenodd"
      d="M5.5 10V7C5.5 5.27609 6.18482 3.62279 7.40381 2.40381C8.62279 1.18482 10.2761 0.5 12 0.5C13.7239 0.5 15.3772 1.18482 16.5962 2.40381C17.8152 3.62279 18.5 5.27609 18.5 7V10H19C20.6569 10 22 11.3431 22 13V20C22 21.6569 20.6569 23 19 23H5C3.34315 23 2 21.6569 2 20V13C2 11.3431 3.34315 10 5 10H5.5ZM9.52513 4.52513C10.1815 3.86875 11.0717 3.5 12 3.5C12.9283 3.5 13.8185 3.86875 14.4749 4.52513C15.1313 5.1815 15.5 6.07174 15.5 7V10H8.5V7C8.5 6.07174 8.86875 5.1815 9.52513 4.52513Z"
    />
  </symbol>
  <symbol id="docker" viewBox="0 0 24 24">
    <path
      d="M10.5021 1.40276C10.9577 1.14026 11.4742 1.00208 12 1.00208C12.5258 1.00208 13.0424 1.14027 13.4979 1.4028L13.5 1.404L20.5 5.40399C20.6632 5.49822 20.8165 5.60722 20.9581 5.72926L11.9999 10.8482L3.0418 5.72931C3.18347 5.60725 3.33678 5.49823 3.5 5.404L3.50386 5.40177L10.5021 1.40276Z"
    />
    <path
      d="M2.04843 7.46517C2.01651 7.64064 2.00018 7.81927 2 7.999V16.0011C2.00054 16.5271 2.13941 17.0438 2.40269 17.4993C2.66597 17.9548 3.04439 18.333 3.5 18.5961L3.50386 18.5983L10.5 22.5961L10.5019 22.5971C10.6612 22.689 10.828 22.7656 11 22.8264V12.5804L2.04843 7.46517Z"
    />
    <path
      d="M13 22.8264C13.1721 22.7656 13.3389 22.6889 13.4982 22.5971L13.5 22.5961L20.4961 18.5983L20.5 18.5961C20.9556 18.333 21.334 17.9548 21.5973 17.4993C21.8606 17.0438 21.9995 16.5271 22 16.0011V7.999C21.9998 7.81925 21.9835 7.64059 21.9516 7.4651L13 12.5803V22.8264Z"
    />
  </symbol>
  <symbol id="exit" viewBox="0 0 24 24">
    <path
      d="M7.75 4.75C8.30228 4.75 8.75 4.30228 8.75 3.75V2.75C8.75 2.19772 8.30228 1.75 7.75 1.75H4.25C2.86929 1.75 1.75 2.86929 1.75 4.25V20.25C1.75 21.6307 2.86929 22.75 4.25 22.75H7.75C8.30228 22.75 8.75 22.3023 8.75 21.75V20.75C8.75 20.1977 8.30228 19.75 7.75 19.75H4.75V4.75H7.75Z"
    />
    <path
      d="M16.25 8.25003C16.25 7.84557 16.4936 7.48093 16.8673 7.32615C17.241 7.17137 17.6711 7.25692 17.9571 7.54292L21.9571 11.5429C22.3476 11.9334 22.3476 12.5666 21.9571 12.9571L17.9571 16.9571C17.6711 17.2431 17.241 17.3287 16.8673 17.1739C16.4936 17.0191 16.25 16.6545 16.25 16.25V13.75H8.25C7.69771 13.75 7.25 13.3023 7.25 12.75V11.75C7.25 11.1977 7.69772 10.75 8.25 10.75H16.25V8.25003Z"
    />
  </symbol>

  <symbol id="trash" viewBox="0 0 24 24">
    <path
      d="M8 1.5V2.5H3C2.44772 2.5 2 2.94772 2 3.5V4.5C2 5.05228 2.44772 5.5 3 5.5H21C21.5523 5.5 22 5.05228 22 4.5V3.5C22 2.94772 21.5523 2.5 21 2.5H16V1.5C16 0.947715 15.5523 0.5 15 0.5H9C8.44772 0.5 8 0.947715 8 1.5Z"
    />
    <path
      d="M3.9231 7.5H20.0767L19.1344 20.2216C19.0183 21.7882 17.7135 23 16.1426 23H7.85724C6.28636 23 4.98148 21.7882 4.86544 20.2216L3.9231 7.5Z"
    />
  </symbol>
  <symbol id="back" viewBox="0 0 24 24">
    <path
      d="M11.2945 18.9112C11.7216 18.7306 12 18.3052 12 17.8333V15H19C19.5523 15 20 14.5523 20 14V10C20 9.44772 19.5523 9 19 9H12V6.1667C12 5.69483 11.7216 5.26942 11.2945 5.08884C10.8674 4.90826 10.3759 5.00808 10.049 5.34174L4.33474 11.175C3.88842 11.6307 3.88842 12.3693 4.33474 12.825L10.049 18.6583C10.3759 18.9919 10.8674 19.0917 11.2945 18.9112Z"
    />
  </symbol>
  <symbol id="close" viewBox="0 0 24 24">
    <path
      d="M4.70718 2.58574C4.31666 2.19522 3.68349 2.19522 3.29297 2.58574L2.58586 3.29285C2.19534 3.68337 2.19534 4.31654 2.58586 4.70706L9.87877 12L2.5859 19.2928C2.19537 19.6834 2.19537 20.3165 2.5859 20.7071L3.293 21.4142C3.68353 21.8047 4.31669 21.8047 4.70722 21.4142L12.0001 14.1213L19.293 21.4142C19.6835 21.8047 20.3167 21.8047 20.7072 21.4142L21.4143 20.7071C21.8048 20.3165 21.8048 19.6834 21.4143 19.2928L14.1214 12L21.4143 4.70706C21.8048 4.31654 21.8048 3.68337 21.4143 3.29285L20.7072 2.58574C20.3167 2.19522 19.6835 2.19522 19.293 2.58574L12.0001 9.87865L4.70718 2.58574Z" />
  </symbol>
  <symbol id="info" viewBox="0 0 24 24">
    <path fill-rule="evenodd" clip-rule="evenodd"
      d="M1 12C1 5.92487 5.92487 1 12 1C18.0751 1 23 5.92487 23 12C23 18.0751 18.0751 23 12 23C5.92487 23 1 18.0751 1 12ZM10.25 11C10.25 10.4477 10.6977 10 11.25 10H12.75C13.3023 10 13.75 10.4477 13.75 11V18C13.75 18.5523 13.3023 19 12.75 19H11.25C10.6977 19 10.25 18.5523 10.25 18V11ZM14 7C14 5.89543 13.1046 5 12 5C10.8954 5 10 5.89543 10 7C10 8.10457 10.8954 9 12 9C13.1046 9 14 8.10457 14 7Z"
    />
  </symbol>
  <symbol id="link" viewBox="0 0 24 24">
    <path
      d="M16.4481 1.50023C14.844 1.4862 13.3007 2.10727 12.15 3.22645L12.1351 3.24107L11.6464 3.7298C11.2559 4.12032 11.2559 4.75349 11.6464 5.14401L12.3535 5.85112C12.7441 6.24164 13.3772 6.24164 13.7677 5.85112L14.2484 5.37048C14.834 4.80437 15.6142 4.49305 16.4218 4.50012C17.2326 4.50721 18.0103 4.83463 18.5868 5.41517C19.1637 5.99606 19.4927 6.78402 19.4998 7.60991C19.5069 8.43176 19.1946 9.22174 18.633 9.81182L15.5209 12.9432C15.2056 13.2609 14.8269 13.5058 14.4107 13.6622C13.9945 13.8185 13.5501 13.8828 13.1076 13.8509C12.6651 13.8189 12.2341 13.6915 11.8438 13.4768C11.7456 13.4228 11.6504 13.3635 11.5588 13.2993C11.1066 12.9823 10.4859 12.8717 10.0425 13.201L9.23978 13.7973C8.79642 14.1266 8.69902 14.7603 9.09601 15.1443C9.48444 15.52 9.9219 15.8435 10.3977 16.1053C11.1664 16.5282 12.0171 16.78 12.8918 16.8431C13.7666 16.9062 14.6444 16.779 15.4656 16.4706C16.2868 16.1621 17.0317 15.6797 17.65 15.0568L20.7712 11.9162L20.7898 11.8971C21.9007 10.7389 22.5136 9.18987 22.4997 7.58402C22.4859 5.97817 21.8463 4.43996 20.7155 3.30127C19.5844 2.16225 18.0521 1.51427 16.4481 1.50023Z" />
    <path
      d="M11.1082 7.15685C10.2334 7.09376 9.35555 7.22089 8.53436 7.52937C7.71347 7.83773 6.96821 8.32053 6.34994 8.94317L3.22873 12.0838L3.21011 12.1029C2.09928 13.261 1.48637 14.8101 1.50023 16.416C1.51409 18.0218 2.15365 19.56 3.28441 20.6987C4.41551 21.8377 5.94781 22.4857 7.55185 22.4997C9.15591 22.5138 10.6993 21.8927 11.85 20.7735L11.8648 20.7589L12.3536 20.2701C12.7441 19.8796 12.7441 19.2465 12.3536 18.8559L11.6464 18.1488C11.2559 17.7583 10.6228 17.7583 10.2322 18.1488L9.75155 18.6295C9.16598 19.1956 8.38576 19.5069 7.5781 19.4999C6.76732 19.4928 5.98963 19.1653 5.41313 18.5848C4.83629 18.0039 4.50725 17.216 4.50012 16.3901C4.49303 15.5682 4.80532 14.7782 5.36694 14.1881L8.47904 11.0567C8.79434 10.7391 9.1731 10.4941 9.58932 10.3378C10.0055 10.1814 10.4498 10.1172 10.8924 10.1491C11.3349 10.181 11.7659 10.3084 12.1561 10.5231C12.2544 10.5772 12.3495 10.6365 12.4411 10.7007C12.8934 11.0177 13.5141 11.1282 13.9574 10.7989L14.7602 10.2026C15.2036 9.87328 15.301 9.23958 14.904 8.85563C14.5155 8.47995 14.0781 8.15644 13.6022 7.89464C12.8335 7.47172 11.9829 7.21993 11.1082 7.15685Z" />
  </symbol>
  <symbol id="copy" viewBox="0 0 24 24">
    <path
      d="M4 0.5C3.07174 0.5 2.1815 0.868749 1.52513 1.52513C0.868749 2.1815 0.5 3.07174 0.5 4V13C0.5 13.9283 0.868749 14.8185 1.52513 15.4749C2.1815 16.1312 3.07174 16.5 4 16.5H6V9C6 7.34315 7.34315 6 9 6H16.5V4C16.5 3.07174 16.1312 2.1815 15.4749 1.52513C14.8185 0.868749 13.9283 0.5 13 0.5H4Z" />
    <path
      d="M8 10.8125C8 9.2592 9.2592 8 10.8125 8H20.1875C21.7408 8 23 9.2592 23 10.8125V20.1875C23 21.7408 21.7408 23 20.1875 23H10.8125C9.2592 23 8 21.7408 8 20.1875V10.8125Z" />
  </symbol>
  <symbol id="edit" viewBox="0 0 24 24">
    <path
      d="M19 3a2 2 0 0 1 2 2v14a2 2 0 0 1-2 2H5a2 2 0 0 1-2-2V5a2 2 0 0 1 2-2zm-2.3 6.35c.22-.21.22-.56 0-.77L15.42 7.3a.53.53 0 0 0-.77 0l-1 1l2.05 2.05zM7 14.94V17h2.06l6.06-6.06l-2.06-2.06z" />
  </symbol>
  <symbol id="check" viewBox="0 0 24 24">
    <path
      d="m10.6 16.2l7.05-7.05l-1.4-1.4l-5.65 5.65l-2.85-2.85l-1.4 1.4zM5 21q-.825 0-1.412-.587T3 19V5q0-.825.588-1.412T5 3h14q.825 0 1.413.588T21 5v14q0 .825-.587 1.413T19 21z" />
  </symbol>
</svg>