<svg xmlns="http://www.w3.org/2000/svg" display="none">
  <symbol id="home" viewBox="0 0 24 24"
  >
    <path
      d="M11.3861 1.21065C11.7472 0.929784 12.2528 0.929784 12.6139 1.21065L21.6139 8.21065C21.8575 8.4001 22 8.69141 22 9V20.5C22 21.3284 21.3284 22 20.5 22H15V14C15 13.4477 14.5523 13 14 13H10C9.44772 13 9 13.4477 9 14V22H3.5C2.67157 22 2 21.3284 2 20.5V9C2 8.69141 2.14247 8.4001 2.38606 8.21065L11.3861 1.21065Z"
    />
  </symbol>
  <symbol id="apps" viewBox="0 0 24 24">
    <path
      d="M7 4C7 5.38071 5.88071 6.5 4.5 6.5C3.11929 6.5 2 5.38071 2 4C2 2.61929 3.11929 1.5 4.5 1.5C5.88071 1.5 7 2.61929 7 4Z"
    />
    <path
      d="M14.5 4C14.5 5.38071 13.3807 6.5 12 6.5C10.6193 6.5 9.5 5.38071 9.5 4C9.5 2.61929 10.6193 1.5 12 1.5C13.3807 1.5 14.5 2.61929 14.5 4Z"
    />
    <path
      d="M19.5 6.5C20.8807 6.5 22 5.38071 22 4C22 2.61929 20.8807 1.5 19.5 1.5C18.1193 1.5 17 2.61929 17 4C17 5.38071 18.1193 6.5 19.5 6.5Z"
    />
    <path
      d="M7 12C7 13.3807 5.88071 14.5 4.5 14.5C3.11929 14.5 2 13.3807 2 12C2 10.6193 3.11929 9.5 4.5 9.5C5.88071 9.5 7 10.6193 7 12Z"
    />
    <path
      d="M12 14.5C13.3807 14.5 14.5 13.3807 14.5 12C14.5 10.6193 13.3807 9.5 12 9.5C10.6193 9.5 9.5 10.6193 9.5 12C9.5 13.3807 10.6193 14.5 12 14.5Z"
    />
    <path
      d="M22 12C22 13.3807 20.8807 14.5 19.5 14.5C18.1193 14.5 17 13.3807 17 12C17 10.6193 18.1193 9.5 19.5 9.5C20.8807 9.5 22 10.6193 22 12Z"
    />
    <path
      d="M4.5 22.5C5.88071 22.5 7 21.3807 7 20C7 18.6193 5.88071 17.5 4.5 17.5C3.11929 17.5 2 18.6193 2 20C2 21.3807 3.11929 22.5 4.5 22.5Z"
    />
    <path
      d="M14.5 20C14.5 21.3807 13.3807 22.5 12 22.5C10.6193 22.5 9.5 21.3807 9.5 20C9.5 18.6193 10.6193 17.5 12 17.5C13.3807 17.5 14.5 18.6193 14.5 20Z"
    />
    <path
      d="M19.5 22.5C20.8807 22.5 22 21.3807 22 20C22 18.6193 20.8807 17.5 19.5 17.5C18.1193 17.5 17 18.6193 17 20C17 21.3807 18.1193 22.5 19.5 22.5Z"
    />
  </symbol>
  <symbol id="collapse" viewBox="0 0 24 24">
    <path
      d="M19 4C19 3.44772 19.4477 3 20 3H21C21.5523 3 22 3.44772 22 4V20C22 20.5523 21.5523 21 21 21H20C19.4477 21 19 20.5523 19 20V4Z"
    />
    <path
      d="M8 16C8 16.4044 7.75636 16.7691 7.38268 16.9239C7.00901 17.0786 6.57889 16.9931 6.29289 16.7071L2.29289 12.7071C1.90237 12.3166 1.90237 11.6834 2.29289 11.2929L6.29289 7.29286C6.57889 7.00687 7.00901 6.92131 7.38268 7.07609C7.75636 7.23087 8 7.59551 8 7.99997V10.5H16C16.5523 10.5 17 10.9477 17 11.5V12.5C17 13.0523 16.5523 13.5 16 13.5H8V16Z"
    />
  </symbol>
  <symbol id="expand" viewBox="0 0 24 24">
    <path
      d="M5 4C5 3.44772 4.55228 3 4 3H3C2.44772 3 2 3.44772 2 4V20C2 20.5523 2.44772 21 3 21H4C4.55228 21 5 20.5523 5 20V4Z"
    />
    <path
      d="M16 16C16 16.4044 16.2436 16.7691 16.6173 16.9239C16.991 17.0786 17.4211 16.9931 17.7071 16.7071L21.7071 12.7071C22.0976 12.3166 22.0976 11.6834 21.7071 11.2929L17.7071 7.29286C17.4211 7.00687 16.991 6.92131 16.6173 7.07609C16.2436 7.23087 16 7.59551 16 7.99997V10.5H8C7.44771 10.5 7 10.9477 7 11.5V12.5C7 13.0523 7.44772 13.5 8 13.5H16V16Z"
    />
  </symbol>
  <symbol id="user" viewBox="0 0 24 24">
    <path
      d="M12 1C8.96243 1 6.5 3.46243 6.5 6.5C6.5 9.53757 8.96243 12 12 12C15.0376 12 17.5 9.53757 17.5 6.5C17.5 3.46243 15.0376 1 12 1Z"
    />
    <path
      d="M7 14C4.23858 14 2 16.2386 2 19V22C2 22.5523 2.44772 23 3 23H21C21.5523 23 22 22.5523 22 22V19C22 16.2386 19.7614 14 17 14H7Z"
    />
  </symbol>
  <symbol id="otps" viewBox="0 0 24 24">
    <path fill-rule="evenodd" clip-rule="evenodd"
      d="M5.5 10V7C5.5 5.27609 6.18482 3.62279 7.40381 2.40381C8.62279 1.18482 10.2761 0.5 12 0.5C13.7239 0.5 15.3772 1.18482 16.5962 2.40381C17.8152 3.62279 18.5 5.27609 18.5 7V10H19C20.6569 10 22 11.3431 22 13V20C22 21.6569 20.6569 23 19 23H5C3.34315 23 2 21.6569 2 20V13C2 11.3431 3.34315 10 5 10H5.5ZM9.52513 4.52513C10.1815 3.86875 11.0717 3.5 12 3.5C12.9283 3.5 13.8185 3.86875 14.4749 4.52513C15.1313 5.1815 15.5 6.07174 15.5 7V10H8.5V7C8.5 6.07174 8.86875 5.1815 9.52513 4.52513Z"
    />
  </symbol>
</svg>